<svg width="158" height="40" viewBox="0 0 158 40" fill="none" xmlns="http://www.w3.org/2000/svg">
<g clip-path="url(#clip0_70_332)">
<path d="M37.7261 20.5203C37.7261 31.1273 29.2768 39.7199 18.8617 39.7199C8.44432 39.7199 0 31.1273 0 20.5203C0 9.91601 8.44432 1.31738 18.8617 1.31738C29.2768 1.31738 37.7261 9.91601 37.7261 20.5203Z" fill="#26292A"/>
<path d="M17.3842 22.406L18.9763 17.5962L20.4665 22.401C19.9345 22.43 19.4006 22.4445 18.864 22.4445C18.3688 22.4445 17.8749 22.43 17.3842 22.406ZM20.5548 10.7139H17.1739L10.6873 28.861H15.2698L16.1468 26.1598L16.1875 26.0386C17.0719 26.1088 17.9632 26.1481 18.864 26.1481C19.7826 26.1481 20.6928 26.1067 21.5943 26.0359L21.6301 26.1598L22.4546 28.861H27.0369L20.5548 10.7139Z" fill="white"/>
<path d="M25.0184 9.21908H21.4617L24.7325 0H28.289L25.0184 9.21908Z" fill="white"/>
<path d="M50.32 2.5C51.9988 2.5 53.2828 2.90931 54.1722 3.7275C55.0613 4.54569 55.5062 5.7806 55.5062 7.43141V14.2311H52.9876V12.8191C52.6604 13.326 52.1945 13.7132 51.5898 13.9812C50.9852 14.2492 50.2559 14.3833 49.4023 14.3833C48.5486 14.3833 47.8017 14.2348 47.1614 13.938C46.5212 13.641 46.0269 13.2282 45.6781 12.6996C45.3296 12.1708 45.1554 11.5737 45.1554 10.9072C45.1554 9.86458 45.5358 9.02825 46.2971 8.39808C47.0584 7.76819 48.2572 7.45323 49.8931 7.45323H52.8385V7.27937C52.8385 6.46839 52.6001 5.84569 52.1233 5.41106C51.6467 4.97662 50.9389 4.7593 49.9999 4.7593C49.3597 4.7593 48.7301 4.86085 48.1111 5.06355C47.4922 5.26624 46.9694 5.54865 46.5426 5.91078L45.4968 3.9339C46.0944 3.47042 46.8129 3.1155 47.6523 2.86954C48.4919 2.62318 49.3809 2.5 50.32 2.5ZM49.9572 12.4062C50.6258 12.4062 51.22 12.2505 51.7392 11.9392C52.2587 11.6278 52.6249 11.1825 52.8385 10.6032V9.25625H50.0853C48.5486 9.25625 47.7804 9.77058 47.7804 10.7987C47.7804 11.291 47.9725 11.6822 48.3566 11.9718C48.7406 12.2614 49.2744 12.4062 49.9572 12.4062ZM63.5518 9.58216H61.4817V14.2311H58.8141V2.63061H61.4817V7.32285H63.6158L66.9879 2.63061H69.8477L65.7074 8.21354L70.1251 14.2311H66.9879L63.5518 9.58216ZM84.1174 11.9283L84.9041 14.2159L82.0126 14.2311H72.003V2.63061H74.6708V11.9283H80.1129V2.63061H82.7805V11.9283H84.1174ZM97.549 8.49591C97.549 8.68425 97.5351 8.95225 97.5064 9.29975H88.5643C88.7207 10.1544 89.13 10.8312 89.7915 11.331C90.4529 11.8307 91.2749 12.0806 92.2564 12.0806C93.5081 12.0806 94.5396 11.6603 95.3509 10.8206L96.7803 12.4932C96.2686 13.1161 95.6211 13.5866 94.8385 13.9054C94.0558 14.2239 93.1741 14.3833 92.1926 14.3833C90.94 14.3833 89.8373 14.1297 88.8844 13.6228C87.9307 13.1161 87.1947 12.41 86.6757 11.5048C86.1558 10.5997 85.8963 9.57491 85.8963 8.43066C85.8963 7.30101 86.1493 6.28362 86.6544 5.37851C87.1587 4.47339 87.8594 3.76725 88.7559 3.26031C89.6523 2.75357 90.6625 2.5 91.7865 2.5C92.8966 2.5 93.8888 2.74987 94.764 3.2494C95.6391 3.74933 96.3219 4.45155 96.813 5.35687C97.3034 6.26199 97.549 7.30842 97.549 8.49591ZM91.7865 4.67258C90.9327 4.67258 90.2106 4.92966 89.6204 5.4436C89.0301 5.95796 88.6707 6.64226 88.543 7.4967H95.0096C94.8949 6.65667 94.547 5.97587 93.9633 5.45452C93.3804 4.93316 92.6543 4.67258 91.7865 4.67258ZM100.472 2.63061H103.14V7.34467H108.881V2.63061H111.549V14.2311H108.881V9.64741H103.14V14.2311H100.472V2.63061ZM124.17 4.93316H120.171V14.2311H117.503V4.93316H113.491V2.63061H124.154L124.17 4.93316Z" fill="#26292A"/>
<path d="M154.853 27.4874H151.595L154.591 19.042H157.849L154.853 27.4874Z" fill="#26292A"/>
<path d="M45.4994 19.0461H47.8691V22.3141H51.4464V19.0461H53.8314V27.4188H51.4464V24.2906H47.8691V27.4188H45.4994V19.0461ZM59.3047 18.9217C60.5787 18.9217 61.5572 19.2303 62.2401 19.8476C62.9231 20.465 63.2645 21.396 63.2645 22.641V27.4188H61.0324V26.376C60.5838 27.1541 59.748 27.5432 58.525 27.5432C57.8932 27.5432 57.3455 27.4342 56.8816 27.2163C56.4178 26.9985 56.0637 26.6976 55.819 26.3136C55.5746 25.9299 55.4522 25.4942 55.4522 25.0066C55.4522 24.2285 55.7401 23.6162 56.316 23.17C56.8919 22.724 57.7811 22.501 58.9837 22.501H60.8794C60.8794 21.972 60.7216 21.5645 60.4055 21.2795C60.0894 20.994 59.6155 20.8514 58.9837 20.8514C58.5454 20.8514 58.1148 20.9215 57.6919 21.0615C57.2688 21.2014 56.9098 21.3909 56.6141 21.6295L55.7579 19.9333C56.2063 19.6115 56.744 19.3625 57.3708 19.1862C57.9977 19.0099 58.6424 18.9217 59.3047 18.9217ZM59.1211 25.9093C59.5291 25.9093 59.8907 25.8131 60.2068 25.6213C60.5227 25.4294 60.7469 25.1465 60.8794 24.773V23.9171H59.2436C58.2651 23.9171 57.7761 24.2439 57.7761 24.8977C57.7761 25.209 57.8957 25.4551 58.1352 25.637C58.3748 25.8185 58.7034 25.9093 59.1211 25.9093ZM74.5165 18.9217C75.2809 18.9217 75.9766 19.1007 76.6034 19.4585C77.2302 19.8165 77.722 20.3195 78.0787 20.968C78.4355 21.6165 78.6138 22.3715 78.6138 23.2325C78.6138 24.0935 78.4355 24.8482 78.0787 25.4967C77.722 26.1451 77.2302 26.6484 76.6034 27.0062C75.9766 27.3642 75.2809 27.5432 74.5165 27.5432C73.4667 27.5432 72.6413 27.206 72.0399 26.5316V30.438H69.6551V19.0461H71.9328V20.011C72.5239 19.2849 73.3852 18.9217 74.5165 18.9217ZM74.1038 25.5513C74.7153 25.5513 75.2173 25.3412 75.6097 24.921C76.0021 24.5007 76.1984 23.938 76.1984 23.2325C76.1984 22.527 76.0021 21.9642 75.6097 21.544C75.2173 21.1237 74.7153 20.9136 74.1038 20.9136C73.4922 20.9136 72.9903 21.1237 72.5979 21.544C72.2056 21.9642 72.0093 22.527 72.0093 23.2325C72.0093 23.938 72.2056 24.5007 72.5979 24.921C72.9903 25.3412 73.4922 25.5513 74.1038 25.5513ZM88.2764 23.2635C88.2764 23.2946 88.2608 23.5126 88.2305 23.9171H82.008C82.1201 24.4359 82.3853 24.8458 82.8029 25.1465C83.2204 25.4475 83.7402 25.598 84.3624 25.598C84.7906 25.598 85.1704 25.5331 85.5011 25.4034C85.8327 25.2736 86.1405 25.0689 86.4262 24.7887L87.6951 26.1892C86.9207 27.0919 85.7893 27.5432 84.301 27.5432C83.3735 27.5432 82.5532 27.359 81.8398 26.9907C81.1261 26.6225 80.5759 26.1114 80.1886 25.4578C79.8013 24.8041 79.6076 24.0624 79.6076 23.2325C79.6076 22.4128 79.7988 21.6737 80.1809 21.0148C80.5631 20.356 81.088 19.8425 81.7556 19.4742C82.423 19.1056 83.1696 18.9217 83.9956 18.9217C84.8004 18.9217 85.529 19.098 86.1814 19.4507C86.8339 19.8035 87.3464 20.3093 87.7181 20.968C88.0897 21.627 88.2764 22.392 88.2764 23.2635ZM84.0104 20.7581C83.4701 20.7581 83.0174 20.9136 82.6498 21.2249C82.283 21.5361 82.0587 21.9615 81.9768 22.501H86.0284C85.9473 21.972 85.723 21.5491 85.3562 21.2327C84.9895 20.9163 84.5409 20.7581 84.0104 20.7581ZM95.3397 23.0613C95.8284 23.2168 96.2083 23.4555 96.4785 23.7771C96.7486 24.0986 96.8837 24.4826 96.8837 24.9288C96.8837 25.4578 96.7052 25.922 96.3483 26.3215C95.9914 26.7211 95.5026 27.0297 94.8805 27.2476C94.2591 27.4654 93.5559 27.5743 92.7708 27.5743C92.129 27.5743 91.497 27.507 90.8756 27.372C90.2534 27.2371 89.6771 27.0348 89.1474 26.7652L89.7892 25.0689C90.6562 25.4942 91.614 25.7068 92.6635 25.7068C93.2243 25.7068 93.6656 25.6213 93.9865 25.4501C94.3074 25.279 94.4678 25.0375 94.4678 24.7263C94.4678 24.4566 94.3557 24.2519 94.1314 24.1116C93.9071 23.9715 93.5812 23.9017 93.1531 23.9017H91.4716V22.392H92.9394C93.3569 22.392 93.6779 22.3246 93.9022 22.1897C94.1265 22.055 94.2386 21.8577 94.2386 21.5984C94.2386 21.3285 94.0986 21.121 93.8178 20.9759C93.5379 20.8306 93.1375 20.7581 92.6177 20.7581C91.8228 20.7581 90.9566 20.9499 90.0185 21.3339L89.438 19.653C90.5792 19.1448 91.6902 18.8906 92.7708 18.8906C93.5149 18.8906 94.1797 18.9839 94.7658 19.1705C95.352 19.3574 95.8129 19.6297 96.1494 19.9877C96.4858 20.3455 96.6545 20.763 96.6545 21.2405C96.6545 21.6348 96.5366 21.9901 96.3025 22.3065C96.0683 22.623 95.7466 22.8745 95.3397 23.0613ZM106.852 19.0461L103.136 27.9323C102.759 28.8972 102.293 29.5767 101.737 29.971C101.182 30.3653 100.512 30.5624 99.7269 30.5624C99.2987 30.5624 98.8755 30.4949 98.458 30.3599C98.0404 30.2252 97.6983 30.0384 97.4338 29.7998L98.3049 28.0724C98.4891 28.2385 98.7003 28.368 98.9393 28.4615C99.1792 28.5548 99.4158 28.6014 99.6507 28.6014C99.9766 28.6014 100.242 28.521 100.446 28.3604C100.649 28.1993 100.833 27.9323 100.996 27.5589L101.026 27.481L97.4641 19.0461H99.9258L102.234 24.7263L104.558 19.0461H106.852ZM115.306 19.0461V27.4188H112.92V21.038H110.322L110.245 22.5166C110.204 23.6162 110.102 24.5294 109.94 25.2555C109.777 25.9818 109.511 26.5524 109.145 26.9675C108.778 27.3823 108.268 27.59 107.615 27.59C107.269 27.59 106.857 27.5275 106.378 27.4031L106.5 25.4112C106.663 25.4318 106.78 25.4423 106.852 25.4423C107.208 25.4423 107.475 25.3099 107.654 25.0454C107.832 24.7809 107.952 24.4439 108.013 24.0338C108.075 23.624 108.12 23.0821 108.151 22.4077L108.273 19.0461H115.306ZM122.047 21.7228C123.117 21.7333 123.939 21.9796 124.509 22.462C125.08 22.9445 125.365 23.6267 125.365 24.5085C125.365 25.4318 125.047 26.1503 124.41 26.664C123.772 27.1774 122.878 27.4342 121.727 27.4342L117.599 27.4188V19.0461H119.968V21.7228H122.047ZM121.513 25.7068C121.971 25.7173 122.323 25.6186 122.567 25.4112C122.812 25.2035 122.935 24.8923 122.935 24.4775C122.935 24.0727 122.815 23.7771 122.575 23.5903C122.336 23.4036 121.981 23.305 121.513 23.2946L119.968 23.279V25.7068H121.513ZM133.009 21.038H130.227V27.4188H127.857V21.038H125.075V19.0461H133.009V21.038ZM137.473 18.9217C138.748 18.9217 139.725 19.2303 140.409 19.8476C141.092 20.465 141.433 21.396 141.433 22.641V27.4188H139.201V26.376C138.753 27.1541 137.917 27.5432 136.694 27.5432C136.062 27.5432 135.514 27.4342 135.05 27.2163C134.587 26.9985 134.232 26.6976 133.988 26.3136C133.744 25.9299 133.621 25.4942 133.621 25.0066C133.621 24.2285 133.909 23.6162 134.484 23.17C135.061 22.724 135.95 22.501 137.152 22.501H139.048C139.048 21.972 138.89 21.5645 138.574 21.2795C138.258 20.994 137.784 20.8514 137.152 20.8514C136.714 20.8514 136.284 20.9215 135.861 21.0615C135.437 21.2014 135.079 21.3909 134.782 21.6295L133.927 19.9333C134.375 19.6115 134.913 19.3625 135.54 19.1862C136.166 19.0099 136.811 18.9217 137.473 18.9217ZM137.29 25.9093C137.698 25.9093 138.059 25.8131 138.375 25.6213C138.691 25.4294 138.916 25.1465 139.048 24.773V23.9171H137.413C136.434 23.9171 135.945 24.2439 135.945 24.8977C135.945 25.209 136.064 25.4551 136.303 25.637C136.543 25.8185 136.872 25.9093 137.29 25.9093ZM150.062 21.038H147.64V27.4188H145.27V21.038H142.488V19.0461H150.783L150.062 21.038Z" fill="#26292A"/>
</g>
<defs>
<clipPath id="clip0_70_332">
<rect width="158" height="40" fill="white"/>
</clipPath>
</defs>
</svg>
