<svg width="139" height="82" viewBox="0 0 139 82" fill="none" xmlns="http://www.w3.org/2000/svg">
<g clip-path="url(#clip0_4_17)">
<mask id="mask0_4_17" style="mask-type:luminance" maskUnits="userSpaceOnUse" x="0" y="0" width="139" height="82">
<path d="M138.294 0H0V82H138.294V0Z" fill="white"/>
</mask>
<g mask="url(#mask0_4_17)">
<path d="M11.0282 27.8541H6.59888V46.5319H11.215C14.15 46.5319 15.6709 44.9843 15.6709 42.1026V40.5817C15.6709 38.6071 15.0572 37.193 13.483 36.5793C14.7904 35.9656 15.3774 34.7382 15.3774 32.817V32.15C15.3774 29.2683 14.07 27.8541 11.0282 27.8541ZM10.8414 38.1269C12.1755 38.1269 12.7359 38.6605 12.7359 40.3949V42.0225C12.7359 43.41 12.2022 43.8636 11.215 43.8636H9.53396V38.1269H10.8414ZM10.9481 30.5223C11.9887 30.5223 12.4424 31.1094 12.4424 32.4435V33.4841C12.4424 34.9783 11.7753 35.4586 10.6813 35.4586H9.53396V30.5223H10.9481ZM20.3737 30.5223H23.7091V46.5319H26.6975V27.8541H17.4387V46.5319H20.3737V30.5223ZM31.5206 32.15C31.5206 30.8158 32.1076 30.3089 33.0416 30.3089C33.9755 30.3089 34.5625 30.8158 34.5625 32.15V42.236C34.5625 43.5701 33.9755 44.0771 33.0416 44.0771C32.1076 44.0771 31.5206 43.5701 31.5206 42.236V32.15ZM28.5855 42.0492C28.5855 45.0376 30.1598 46.7453 33.0416 46.7453C35.9233 46.7453 37.4976 45.0376 37.4976 42.0492V32.3368C37.4976 29.3483 35.9233 27.6406 33.0416 27.6406C30.1598 27.6406 28.5855 29.3483 28.5855 32.3368V42.0492Z" fill="black"/>
<path d="M7.00634 50.3063H5.818V55.3174H7.05646C7.84392 55.3174 8.25196 54.9022 8.25196 54.1291V53.721C8.25196 53.1913 8.08731 52.8119 7.66495 52.6472C8.01572 52.4826 8.17322 52.1532 8.17322 51.6378V51.4588C8.17322 50.6857 7.82244 50.3063 7.00634 50.3063ZM6.95623 53.0624C7.31417 53.0624 7.4645 53.2056 7.4645 53.6709V54.1076C7.4645 54.4798 7.32133 54.6015 7.05646 54.6015H6.60546V53.0624H6.95623ZM6.98487 51.0222C7.26406 51.0222 7.38576 51.1797 7.38576 51.5376V51.8168C7.38576 52.2177 7.20679 52.3465 6.91328 52.3465H6.60546V51.0222H6.98487ZM10.4586 51.8168C10.4586 52.2177 10.2797 52.3465 9.98616 52.3465H9.74993V53.0624H9.94321C10.3011 53.0624 10.4586 53.2342 10.4586 53.6995V54.0933C10.4586 54.5371 10.3011 54.6588 10.0506 54.6588C9.80004 54.6588 9.64254 54.5228 9.64254 54.1648V53.5635H8.89804V54.1147C8.89804 54.9165 9.29893 55.3747 10.0721 55.3747C10.8452 55.3747 11.2461 54.9165 11.2461 54.1147V53.721C11.2461 53.2127 11.0886 52.8405 10.6949 52.6687C11.0743 52.5112 11.2461 52.1747 11.2461 51.6378V51.509C11.2461 50.7072 10.8452 50.249 10.0721 50.249C9.29893 50.249 8.91235 50.6929 8.91235 51.4946V51.8669H9.63539V51.4588C9.63539 51.1009 9.80004 50.9649 10.0506 50.9649C10.3011 50.9649 10.4586 51.0866 10.4586 51.5376V51.8168ZM13.1538 50.3063H11.9941V55.3174H12.7815V53.4347H13.1538C13.9413 53.4347 14.3278 52.998 14.3278 52.1962V51.5448C14.3278 50.743 13.9413 50.3063 13.1538 50.3063ZM13.1538 51.0222C13.4044 51.0222 13.5404 51.1367 13.5404 51.4946V52.2463C13.5404 52.6042 13.4044 52.7188 13.1538 52.7188H12.7815V51.0222H13.1538ZM16.067 55.3174C16.8545 55.3174 17.2411 54.8807 17.2411 54.0789V53.4275C17.2411 52.6257 16.8545 52.189 16.067 52.189H15.6948V50.3063H14.9073V55.3174H16.067ZM15.6948 54.6015V52.9049H16.067C16.3176 52.9049 16.4536 53.0195 16.4536 53.3774V54.1291C16.4536 54.487 16.3176 54.6015 16.067 54.6015H15.6948ZM18.4795 55.3174V50.3063H17.6921V55.3174H18.4795ZM20.4561 50.3063H19.2677V55.3174H20.5062C21.2937 55.3174 21.7017 54.9022 21.7017 54.1291V53.721C21.7017 53.1913 21.5371 52.8119 21.1147 52.6472C21.4655 52.4826 21.623 52.1532 21.623 51.6378V51.4588C21.623 50.6857 21.2722 50.3063 20.4561 50.3063ZM20.406 53.0624C20.7639 53.0624 20.9143 53.2056 20.9143 53.6709V54.1076C20.9143 54.4798 20.7711 54.6015 20.5062 54.6015H20.0552V53.0624H20.406ZM20.4346 51.0222C20.7138 51.0222 20.8355 51.1797 20.8355 51.5376V51.8168C20.8355 52.2177 20.6565 52.3465 20.363 52.3465H20.0552V51.0222H20.4346ZM23.1138 51.4588C23.1138 51.1009 23.2713 50.9649 23.5218 50.9649C23.7724 50.9649 23.9299 51.1009 23.9299 51.4588V54.1648C23.9299 54.5228 23.7724 54.6588 23.5218 54.6588C23.2713 54.6588 23.1138 54.5228 23.1138 54.1648V51.4588ZM22.3263 54.1147C22.3263 54.9165 22.7487 55.3747 23.5218 55.3747C24.295 55.3747 24.7173 54.9165 24.7173 54.1147V51.509C24.7173 50.7072 24.295 50.249 23.5218 50.249C22.7487 50.249 22.3263 50.7072 22.3263 51.509V54.1147ZM26.9615 51.8168C26.9615 52.2177 26.7825 52.3465 26.489 52.3465H26.2527V53.0624H26.446C26.804 53.0624 26.9615 53.2342 26.9615 53.6995V54.0933C26.9615 54.5371 26.804 54.6588 26.5534 54.6588C26.3029 54.6588 26.1454 54.5228 26.1454 54.1648V53.5635H25.4009V54.1147C25.4009 54.9165 25.8017 55.3747 26.5749 55.3747C27.348 55.3747 27.7489 54.9165 27.7489 54.1147V53.721C27.7489 53.2127 27.5914 52.8405 27.1977 52.6687C27.5771 52.5112 27.7489 52.1747 27.7489 51.6378V51.509C27.7489 50.7072 27.348 50.249 26.5749 50.249C25.8017 50.249 25.4152 50.6929 25.4152 51.4946V51.8669H26.1382V51.4588C26.1382 51.1009 26.3029 50.9649 26.5534 50.9649C26.804 50.9649 26.9615 51.0866 26.9615 51.5376V51.8168ZM30.2436 50.3063H29.0911L28.2893 55.3174H29.0123L29.1483 54.4082H30.1148L30.2508 55.3174H31.0454L30.2436 50.3063ZM29.628 51.194L30.0074 53.7282H29.2486L29.628 51.194ZM35.3494 50.3063H34.5619V54.6015H33.8818V50.3063H33.0944V54.6015H32.4144V50.3063H31.6269V55.3174H34.9342V55.9903H35.7001V54.6158H35.3494V50.3063ZM37.8113 53.0195L38.1335 51.7882V55.3174H38.8422V50.3063H37.976L37.3317 52.3752L37.0453 53.4776V50.3063H36.3438V55.3174H37.1527L37.8113 53.0195ZM43.3362 50.3063H42.5488V54.6015H41.8687V50.3063H41.0812V54.6015H40.4011V50.3063H39.6137V55.3174H42.921V55.9903H43.687V54.6158H43.3362V50.3063ZM45.1181 51.0222H46.4783V50.3063H44.3306V55.3174H46.4783V54.6015H45.1181V53.134H46.1991V52.4181H45.1181V51.0222ZM47.9682 53.1698H48.8631V55.3174H49.6649V50.3063H48.8631V52.4539H47.9682V50.3063H47.1808V55.3174H47.9682V53.1698ZM51.2382 53.1698H52.133V55.3174H52.9348V50.3063H52.133V52.4539H51.2382V50.3063H50.4507V55.3174H51.2382V53.1698ZM54.4436 51.4588C54.4436 51.1009 54.6011 50.9649 54.8517 50.9649C55.1022 50.9649 55.2597 51.1009 55.2597 51.4588V54.1648C55.2597 54.5228 55.1022 54.6588 54.8517 54.6588C54.6011 54.6588 54.4436 54.5228 54.4436 54.1648V51.4588ZM53.6562 54.1147C53.6562 54.9165 54.0785 55.3747 54.8517 55.3747C55.6248 55.3747 56.0472 54.9165 56.0472 54.1147V51.509C56.0472 50.7072 55.6248 50.249 54.8517 50.249C54.0785 50.249 53.6562 50.7072 53.6562 51.509V54.1147ZM57.5609 51.0222H58.9211V50.3063H56.7735V55.3174H58.9211V54.6015H57.5609V53.134H58.6419V52.4181H57.5609V51.0222ZM5.71777 60.6793V61.2735C5.71777 62.0752 6.11866 62.5334 6.8918 62.5334C7.66495 62.5334 8.06584 62.0752 8.06584 61.2735V58.6677C8.06584 57.8659 7.66495 57.4078 6.8918 57.4078C6.11866 57.4078 5.73209 57.8659 5.73209 58.6677V59.0901H6.46228V58.6176C6.46228 58.2596 6.61977 58.1236 6.87033 58.1236C7.12088 58.1236 7.27838 58.2596 7.27838 58.6176V59.5267H6.55534V60.2426H7.27838V61.3236C7.27838 61.6815 7.12088 61.8104 6.87033 61.8104C6.61977 61.8104 6.46228 61.6815 6.46228 61.3236V60.6793H5.71777ZM8.57225 62.4833H8.69395C9.48141 62.4833 9.81071 62.1254 9.83934 61.209L9.92525 58.1809H10.6125V62.4761H11.4143V57.465H9.1879L9.05904 61.252C9.04473 61.7173 8.93019 61.7674 8.57225 61.7674V62.4833ZM13.0192 58.1809H14.3794V57.465H12.2318V62.4761H14.3794V61.7603H13.0192V60.2927H14.1002V59.5768H13.0192V58.1809ZM16.8789 62.4761H17.6879L16.5926 59.6985L17.6879 57.465H16.9004L15.8696 59.6484V57.465H15.0821V62.4761H15.8696V60.937L16.113 60.4788L16.8789 62.4761ZM18.032 58.1809H18.8552V62.4761H19.6427V58.1809H20.4659V57.465H18.032V58.1809ZM22.1872 57.465H21.0275V62.4761H21.8149V60.5934H22.1872C22.9747 60.5934 23.3612 60.1567 23.3612 59.3549V58.7035C23.3612 57.9017 22.9747 57.465 22.1872 57.465ZM22.1872 58.1809C22.4378 58.1809 22.5738 58.2954 22.5738 58.6534V59.405C22.5738 59.763 22.4378 59.8775 22.1872 59.8775H21.8149V58.1809H22.1872ZM24.6638 58.6176C24.6638 58.2596 24.8213 58.1236 25.0718 58.1236C25.3224 58.1236 25.4799 58.2596 25.4799 58.6176V61.3236C25.4799 61.6815 25.3224 61.8175 25.0718 61.8175C24.8213 61.8175 24.6638 61.6815 24.6638 61.3236V58.6176ZM23.8763 61.2735C23.8763 62.0752 24.2987 62.5334 25.0718 62.5334C25.845 62.5334 26.2674 62.0752 26.2674 61.2735V58.6677C26.2674 57.8659 25.845 57.4078 25.0718 57.4078C24.2987 57.4078 23.8763 57.8659 23.8763 58.6677V61.2735ZM27.7169 58.6176C27.7169 58.2596 27.8744 58.1236 28.1249 58.1236C28.3755 58.1236 28.533 58.2596 28.533 58.6176V61.3236C28.533 61.6815 28.3755 61.8175 28.1249 61.8175C27.8744 61.8175 27.7169 61.6815 27.7169 61.3236V58.6176ZM26.9294 61.2735C26.9294 62.0752 27.3518 62.5334 28.1249 62.5334C28.8981 62.5334 29.3204 62.0752 29.3204 61.2735V58.6677C29.3204 57.8659 28.8981 57.4078 28.1249 57.4078C27.3518 57.4078 26.9294 57.8659 26.9294 58.6677V61.2735ZM31.2997 62.4761C32.0872 62.4761 32.4881 62.0395 32.4881 61.2377V60.7008C32.4881 59.899 32.0872 59.4623 31.2997 59.4623H30.8416V58.1809H32.259V57.465H30.0541V62.4761H31.2997ZM30.8416 61.7603V60.1782H31.2997C31.5503 60.1782 31.7006 60.2927 31.7006 60.6507V61.2878C31.7006 61.6457 31.5503 61.7603 31.2997 61.7603H30.8416ZM33.956 58.6176C33.956 58.2596 34.1135 58.1236 34.3641 58.1236C34.6146 58.1236 34.7721 58.2596 34.7721 58.6176V61.3236C34.7721 61.6815 34.6146 61.8175 34.3641 61.8175C34.1135 61.8175 33.956 61.6815 33.956 61.3236V58.6176ZM33.1686 61.2735C33.1686 62.0752 33.5909 62.5334 34.3641 62.5334C35.1372 62.5334 35.5596 62.0752 35.5596 61.2735V58.6677C35.5596 57.8659 35.1372 57.4078 34.3641 57.4078C33.5909 57.4078 33.1686 57.8659 33.1686 58.6677V61.2735ZM37.4456 57.465H36.2859V62.4761H37.0733V60.5934H37.4456C38.233 60.5934 38.6196 60.1567 38.6196 59.3549V58.7035C38.6196 57.9017 38.233 57.465 37.4456 57.465ZM37.4456 58.1809C37.6961 58.1809 37.8321 58.2954 37.8321 58.6534V59.405C37.8321 59.763 37.6961 59.8775 37.4456 59.8775H37.0733V58.1809H37.4456ZM41.7906 57.465H40.9673L40.6094 59.1831L40.4233 60.35L40.1799 59.176L39.7504 57.465H38.9701L40.0582 61.3307L40.051 61.3737C39.9866 61.7388 39.7575 61.8104 39.3566 61.7817V62.4833C40.4519 62.5549 40.7597 62.1039 40.9459 61.2019L41.7906 57.465ZM45.3931 63.1491V61.7746H45.0494V57.465H42.8446L42.6656 61.1231C42.6513 61.4166 42.6083 61.6028 42.4723 61.7746H42.1645V63.1491H42.9305V62.4761H44.6128V63.1491H45.3931ZM43.5819 58.1809H44.2477V61.7746H43.2168C43.3457 61.6529 43.4172 61.4882 43.4387 61.1088L43.5819 58.1809ZM46.7695 58.6176C46.7695 58.2596 46.927 58.1236 47.1775 58.1236C47.4281 58.1236 47.5856 58.2596 47.5856 58.6176V61.3236C47.5856 61.6815 47.4281 61.8175 47.1775 61.8175C46.927 61.8175 46.7695 61.6815 46.7695 61.3236V58.6176ZM45.982 61.2735C45.982 62.0752 46.4044 62.5334 47.1775 62.5334C47.9507 62.5334 48.373 62.0752 48.373 61.2735V58.6677C48.373 57.8659 47.9507 57.4078 47.1775 57.4078C46.4044 57.4078 45.982 57.8659 45.982 58.6677V61.2735ZM50.2877 57.465H49.0993V62.4761H50.3378C51.1252 62.4761 51.5333 62.0609 51.5333 61.2878V60.8797C51.5333 60.35 51.3686 59.9706 50.9463 59.8059C51.2971 59.6413 51.4545 59.312 51.4545 58.7965V58.6176C51.4545 57.8444 51.1038 57.465 50.2877 57.465ZM50.2376 60.2211C50.5955 60.2211 50.7458 60.3643 50.7458 60.8296V61.2663C50.7458 61.6386 50.6027 61.7603 50.3378 61.7603H49.8868V60.2211H50.2376ZM50.2662 58.1809C50.5454 58.1809 50.6671 58.3384 50.6671 58.6963V58.9755C50.6671 59.3764 50.4881 59.5053 50.1946 59.5053H49.8868V58.1809H50.2662ZM53.9692 57.465H52.8167L52.0149 62.4761H52.7379L52.8739 61.567H53.8404L53.9764 62.4761H54.771L53.9692 57.465ZM53.3536 58.3527L53.733 60.8869H52.9741L53.3536 58.3527ZM56.1399 60.3285H57.0348V62.4761H57.8366V57.465H57.0348V59.6126H56.1399V57.465H55.3525V62.4761H56.1399V60.3285ZM60.0899 60.1782L60.4121 58.9469V62.4761H61.1208V57.465H60.2546L59.6103 59.5339L59.3239 60.6363V57.465H58.6224V62.4761H59.4313L60.0899 60.1782ZM62.6794 58.1809H64.0396V57.465H61.892V62.4761H64.0396V61.7603H62.6794V60.2927H63.7604V59.5768H62.6794V58.1809Z" fill="black"/>
<path d="M44.9475 39.8345V42.0492C44.9475 45.0376 46.4417 46.7453 49.3234 46.7453C52.2052 46.7453 53.6994 45.0376 53.6994 42.0492V32.3368C53.6994 29.3483 52.2052 27.6406 49.3234 27.6406C46.4417 27.6406 45.0009 29.3483 45.0009 32.3368V33.911H47.7225V32.15C47.7225 30.8158 48.3095 30.3089 49.2434 30.3089C50.1773 30.3089 50.7643 30.8158 50.7643 32.15V35.5387H48.0694V38.2069H50.7643V42.236C50.7643 43.5701 50.1773 44.0504 49.2434 44.0504C48.3095 44.0504 47.7225 43.5701 47.7225 42.236V39.8345H44.9475Z" fill="black"/>
<path fill-rule="evenodd" clip-rule="evenodd" d="M58.5488 40.795V35.9922V27.854H55.6138V46.5318H58.5488V40.795Z" fill="black"/>
<path d="M109.155 12.5479L126.11 42.0417L110.589 67.2335H77.1586L61.1602 39.1739L76.6806 12.5479H109.155Z" fill="black"/>
<path d="M110.005 10.7905L126.959 40.2842L111.438 65.4764H78.008L62.0095 37.4165L77.53 10.7905H110.005Z" fill="#FBEB4E"/>
<path d="M77.1107 7.86133H111.944L129.361 38.0281L111.944 68.195H77.1107L59.6938 38.0281L77.1107 7.86133Z" stroke="white" stroke-width="11.7506"/>
<path d="M74.8118 39.5677V42.236C74.8118 43.5701 74.2248 44.0504 73.2909 44.0504C72.357 44.0504 71.77 43.5701 71.77 42.236V32.15C71.77 30.8158 72.357 30.3089 73.2909 30.3089C74.2248 30.3089 74.8118 30.8158 74.8118 32.15V34.1512H77.5868V32.3368C77.5868 29.3483 76.0926 27.6406 73.2109 27.6406C70.3292 27.6406 68.835 29.3483 68.835 32.3368V42.0492C68.835 45.0376 70.3292 46.7453 73.2109 46.7453C76.0926 46.7453 77.5868 45.0376 77.5868 42.0492V39.5677H74.8118ZM79.2343 38.5271H84.5708V35.8588H79.2343V38.5271ZM89.4944 30.5223H92.8297V46.5319H95.8182V27.8541H86.5593V46.5319H89.4944V30.5223ZM102.269 27.8541H97.9466V46.5319H100.882V39.5144H102.269C105.204 39.5144 106.645 37.8867 106.645 34.8983V32.4702C106.645 29.4817 105.204 27.8541 102.269 27.8541ZM102.269 30.5223C103.203 30.5223 103.71 30.9493 103.71 32.2834V35.0851C103.71 36.4192 103.203 36.8461 102.269 36.8461H100.882V30.5223H102.269ZM110.7 32.15C110.7 30.8158 111.287 30.3089 112.22 30.3089C113.154 30.3089 113.741 30.8158 113.741 32.15V42.236C113.741 43.5701 113.154 44.0771 112.22 44.0771C111.287 44.0771 110.7 43.5701 110.7 42.236V32.15ZM107.764 42.0492C107.764 45.0376 109.339 46.7453 112.22 46.7453C115.102 46.7453 116.676 45.0376 116.676 42.0492V32.3368C116.676 29.3483 115.102 27.6406 112.22 27.6406C109.339 27.6406 107.764 29.3483 107.764 32.3368V42.0492Z" fill="#000003"/>
</g>
</g>
<defs>
<clipPath id="clip0_4_17">
<rect width="138.294" height="82" fill="white"/>
</clipPath>
</defs>
</svg>
