<svg width="44" height="44" viewBox="0 0 44 44" fill="none" xmlns="http://www.w3.org/2000/svg">
<g clip-path="url(#clip0_136_1150)">
<path d="M33.6674 8.49976C36.6967 11.5287 38.4292 15.617 38.4987 19.9002C38.5681 24.1834 36.9691 28.3257 34.0396 31.4513L33.6674 31.8363L25.8886 39.6133C24.9016 40.5997 23.5765 41.174 22.1819 41.22C20.7872 41.2659 19.4272 40.78 18.3774 39.8608L18.1134 39.6133L10.3328 31.8344C7.2384 28.7401 5.5 24.5432 5.5 20.1671C5.5 15.791 7.2384 11.5941 10.3328 8.49976C13.4271 5.40539 17.624 3.66699 22.0001 3.66699C26.3762 3.66699 30.5731 5.40539 33.6674 8.49976ZM22.0001 14.6671C21.2778 14.6671 20.5626 14.8094 19.8953 15.0858C19.2281 15.3622 18.6217 15.7673 18.111 16.278C17.6003 16.7887 17.1952 17.395 16.9188 18.0623C16.6424 18.7296 16.5001 19.4448 16.5001 20.1671C16.5001 20.8894 16.6424 21.6046 16.9188 22.2719C17.1952 22.9391 17.6003 23.5455 18.111 24.0562C18.6217 24.5669 19.2281 24.972 19.8953 25.2484C20.5626 25.5248 21.2778 25.6671 22.0001 25.6671C23.4588 25.6671 24.8577 25.0876 25.8892 24.0562C26.9206 23.0247 27.5001 21.6258 27.5001 20.1671C27.5001 18.7084 26.9206 17.3095 25.8892 16.278C24.8577 15.2466 23.4588 14.6671 22.0001 14.6671Z" fill="#26292A"/>
</g>
<defs>
<clipPath id="clip0_136_1150">
<rect width="44" height="44" fill="white"/>
</clipPath>
</defs>
</svg>
