<svg width="24" height="24" viewBox="0 0 24 24" fill="none" xmlns="http://www.w3.org/2000/svg">
<g opacity="0.8">
<path fill-rule="evenodd" clip-rule="evenodd" d="M17.3615 5.73875C15.8328 4.43484 13.8807 3.73364 11.8717 3.76675C9.86275 3.79985 7.93489 4.56498 6.44996 5.91855C4.96503 7.27212 4.02512 9.12107 3.8066 11.1184C3.58809 13.1158 4.106 15.1242 5.26315 16.7668C5.41379 16.9807 5.44213 17.2575 5.33795 17.4975L4.24477 20.0151L7.91842 19.3604C8.07519 19.3324 8.23679 19.3551 8.37981 19.4252C10.1844 20.3087 12.2494 20.5033 14.1873 19.9725C16.1251 19.4417 17.8027 18.2219 18.9051 16.542C20.0075 14.8622 20.4589 12.8378 20.1747 10.8487C19.8905 8.85963 18.8902 7.04265 17.3615 5.73875ZM11.847 2.26695C14.2213 2.22783 16.5282 3.05651 18.3349 4.5975C20.1416 6.13848 21.3238 8.28582 21.6596 10.6365C21.9955 12.9872 21.462 15.3797 20.1591 17.365C18.8563 19.3503 16.8738 20.7919 14.5835 21.4192C12.3736 22.0246 10.0238 21.8316 7.94563 20.8792L3.1316 21.7371C2.85956 21.7856 2.58289 21.6806 2.41156 21.4638C2.24024 21.247 2.202 20.9535 2.31206 20.7L3.79867 17.2763C2.59895 15.4043 2.07277 13.174 2.3155 10.9553C2.57374 8.59478 3.68455 6.40966 5.43947 4.80999C7.19438 3.21032 9.47276 2.30607 11.847 2.26695Z" fill="#0E0E0E"/>
<path fill-rule="evenodd" clip-rule="evenodd" d="M8.61612 8.11612C8.85054 7.88169 9.16848 7.75 9.5 7.75C9.83152 7.75 10.1495 7.88169 10.3839 8.11612C10.6183 8.35054 10.75 8.66848 10.75 9V10C10.75 10.3315 10.6183 10.6495 10.3839 10.8839C10.2508 11.017 10.0908 11.1169 9.91666 11.1785C10.1141 11.8627 10.4823 12.4927 10.9948 13.0052C11.5073 13.5177 12.1373 13.8859 12.8215 14.0833C12.8831 13.9092 12.983 13.7492 13.1161 13.6161C13.3505 13.3817 13.6685 13.25 14 13.25H15C15.3315 13.25 15.6495 13.3817 15.8839 13.6161C16.1183 13.8505 16.25 14.1685 16.25 14.5C16.25 14.8315 16.1183 15.1495 15.8839 15.3839C15.6495 15.6183 15.3315 15.75 15 15.75H14C12.475 15.75 11.0125 15.1442 9.93414 14.0659C8.8558 12.9875 8.25 11.525 8.25 10V9C8.25 8.66848 8.38169 8.35054 8.61612 8.11612Z" fill="#0E0E0E"/>
</g>
</svg>
