<svg width="24" height="24" viewBox="0 0 24 24" fill="none" xmlns="http://www.w3.org/2000/svg">
<g opacity="0.8">
<path fill-rule="evenodd" clip-rule="evenodd" d="M10.386 8.35642C10.1543 8.2174 9.86573 8.21376 9.6306 8.34689C9.39547 8.48002 9.25012 8.72934 9.25012 8.99954V14.9995C9.25012 15.2697 9.39547 15.5191 9.6306 15.6522C9.86573 15.7853 10.1543 15.7817 10.386 15.6427L15.386 12.6427C15.6119 12.5071 15.7501 12.263 15.7501 11.9995C15.7501 11.7361 15.6119 11.492 15.386 11.3564L10.386 8.35642ZM13.5424 11.9995L10.7501 13.6749V10.3242L13.5424 11.9995Z" fill="#0E0E0E"/>
<path fill-rule="evenodd" clip-rule="evenodd" d="M17.0308 4.64082C13.6821 4.37884 10.3182 4.37884 6.96951 4.64082L4.72881 4.81612C3.36624 4.92273 2.25155 5.94393 2.02632 7.29197C1.50555 10.4087 1.50555 13.5903 2.02632 16.7071C2.25155 18.0552 3.36624 19.0764 4.72881 19.183L6.96951 19.3583C10.3182 19.6202 13.6821 19.6202 17.0308 19.3583L19.2715 19.183C20.6341 19.0764 21.7488 18.0552 21.974 16.7071C22.4948 13.5903 22.4948 10.4087 21.974 7.29197C21.7488 5.94393 20.6341 4.92273 19.2715 4.81612L17.0308 4.64082ZM7.0865 6.13625C10.3573 5.88036 13.643 5.88036 16.9138 6.13625L19.1545 6.31156C19.8301 6.36441 20.3828 6.87076 20.4945 7.53917C20.9879 10.4923 20.9879 13.5068 20.4945 16.4599C20.3828 17.1283 19.8301 17.6347 19.1545 17.6875L16.9138 17.8628C13.643 18.1187 10.3573 18.1187 7.0865 17.8628L4.8458 17.6875C4.17019 17.6347 3.61749 17.1283 3.50581 16.4599C3.01239 13.5068 3.01239 10.4923 3.50581 7.53917C3.61749 6.87076 4.17019 6.36441 4.8458 6.31156L7.0865 6.13625Z" fill="#0E0E0E"/>
</g>
</svg>
